<svg width="256" height="256" viewBox="0 0 24 24" xmlns="http://www.w3.org/2000/svg"><defs><linearGradient id="backgroundGradient-1745895784467" x1="98.51478631379983%" y1="62.09609477998337%" x2="1.4852136862001757%" y2="37.903905220016625%"><stop offset="0%" stop-color="#688cbb"/><stop offset="100%" stop-color="#7f5194"/></linearGradient></defs><rect x="0" y="0" width="24" height="24" rx="8" fill="url(#backgroundGradient-1745895784467)"/><svg xmlns="http://www.w3.org/2000/svg" viewBox="0 0 24 24" x="0" y="0" width="24" height="24"><path fill="#ffffff" d="M20.9 2H3.1A1.1 1.1 0 0 0 2 3.1v17.8A1.1 1.1 0 0 0 3.1 22h9.58v-7.75h-2.6v-3h2.6V9a3.64 3.64 0 0 1 3.88-4a20.26 20.26 0 0 1 2.33.12v2.7H17.3c-1.26 0-1.5.6-1.5 1.47v1.93h3l-.39 3H15.8V22h5.1a1.1 1.1 0 0 0 1.1-1.1V3.1A1.1 1.1 0 0 0 20.9 2Z"/></svg></svg>