<svg width="260" height="260" viewBox="0 0 28 28" xmlns="http://www.w3.org/2000/svg"><defs><linearGradient id="backgroundGradient-1745945101552" x1="6.269014643030211%" y1="25.75951898768315%" x2="93.7309853569698%" y2="74.24048101231685%"><stop offset="0%" stop-color="#7f5bc2"/><stop offset="100%" stop-color="#7590b3"/></linearGradient></defs><rect x="0" y="0" width="28" height="28" rx="3" fill="url(#backgroundGradient-1745945101552)" stroke="#000000" stroke-width="2"/><svg xmlns="http://www.w3.org/2000/svg" viewBox="0 0 24 24" x="2" y="2" width="24" height="24"><path fill="#000000" d="M11.994 2a10 10 0 1 0 10 10a10 10 0 0 0-10-10Zm3.18 15.152a.705.705 0 0 1-1.002.352l-2.715-2.11l-1.742 1.608a.3.3 0 0 1-.285.039l.334-2.989l.01.009l.007-.059s4.885-4.448 5.084-4.637c.202-.189.135-.23.135-.23c.012-.23-.361 0-.361 0l-6.473 4.164l-2.695-.918s-.414-.148-.453-.475c-.041-.324.466-.5.466-.5l10.717-4.258s.881-.392.881.258Z"/></svg></svg>